<?xml version="1.0" encoding="UTF-8"?>
<svg width="50px" height="50px" viewBox="0 0 50 50" version="1.1" xmlns="http://www.w3.org/2000/svg" xmlns:xlink="http://www.w3.org/1999/xlink">
    <title>Group</title>
    <g id="Page-1" stroke="none" stroke-width="1" fill="none" fill-rule="evenodd">
        <g id="Group">
            <rect id="Rectangle" stroke="#000000" stroke-width="3" fill="#FFFFFF" x="1.5" y="1.5" width="47" height="47" rx="19"></rect>
            <g id="A" transform="translate(9.040000, 7.984000)" fill="#000000" fill-rule="nonzero">
                <path d="M12.8342112,0 L19.1337888,0 C19.549253,-6.64166348e-16 19.9214402,0.256887795 20.0687863,0.645345766 L31.4541656,30.6613458 C31.6500358,31.1777306 31.3902072,31.7551274 30.8738223,31.9509975 C30.7605193,31.9939746 30.6403482,32.016 30.5191681,32.016 L22.5864364,32.016 C22.1669096,32.016 21.7919841,31.7541384 21.64756,31.3602546 L21.07244,29.7917454 C20.9280159,29.3978616 20.5530904,29.136 20.1335636,29.136 L11.8344364,29.136 C11.4149096,29.136 11.0399841,29.3978616 10.89556,29.7917454 L10.32044,31.3602546 C10.1760159,31.7541384 9.80109038,32.016 9.38156365,32.016 L1.44883189,32.016 C0.896547141,32.016 0.448831891,31.5682847 0.448831891,31.016 C0.448831891,30.8948199 0.470857333,30.7746488 0.513834365,30.6613458 L11.8992137,0.645345766 C12.0465598,0.256887795 12.418747,-6.28957783e-16 12.8342112,0 Z M18.144,22.08 L15.984,16.464 L13.824,22.08 L18.144,22.08 Z M7.39070634,27.5478254 L7.81898275,26.4207822 C7.9664847,26.0326192 8.33852258,25.776 8.75376633,25.776 L23.2142337,25.776 C23.6294774,25.776 24.0015153,26.0326192 24.1490173,26.4207822 L24.5772937,27.5478254 C24.7209964,27.9259905 25.0834517,28.176 25.488,28.176 C25.7438363,28.176 25.9512325,27.9686037 25.9512325,27.7127675 C25.9512325,27.6564479 25.9409623,27.6006003 25.9209257,27.5479654 L17.1412412,4.48423464 C16.9935881,4.09635829 16.6216954,3.84 16.2066659,3.84 L15.7613341,3.84 C15.3463046,3.84 14.9744119,4.09635829 14.8267588,4.48423464 L6.04707432,27.5479654 C5.95605664,27.7870636 6.07609966,28.0546755 6.31519792,28.1456932 C6.36783284,28.1657297 6.42368038,28.176 6.48,28.176 C6.8845483,28.176 7.24700359,27.9259905 7.39070634,27.5478254 Z M15.984,4.992 L23.472,24.624 L8.496,24.624 L15.984,4.992 Z" id="Shape"></path>
            </g>
        </g>
    </g>
</svg>